<?xml version="1.0" encoding="iso-8859-1"?>
<!-- Generator: Adobe Illustrator 19.0.0, SVG Export Plug-In . SVG Version: 6.00 Build 0)  -->
<svg version="1.1" id="Layer_1" xmlns="http://www.w3.org/2000/svg" xmlns:xlink="http://www.w3.org/1999/xlink" x="0px" y="0px"
	 viewBox="0 0 512 512" style="enable-background:new 0 0 512 512;" xml:space="preserve">
<g>
	<g>
		<path d="M501.333,352h-32V106.667c0-17.643-14.357-32-32-32H74.667c-17.643,0-32,14.357-32,32V352h-32
			C4.779,352,0,356.779,0,362.667V384c0,29.397,23.936,53.333,53.333,53.333h405.333C488.064,437.333,512,413.397,512,384v-21.333
			C512,356.779,507.221,352,501.333,352z M64,106.667C64,100.779,68.779,96,74.667,96h362.667c5.888,0,10.667,4.779,10.667,10.667
			V352H341.333c-2.837,0-5.547,1.131-7.509,3.115l-18.219,18.219H196.437l-18.219-18.219c-2.005-1.984-4.715-3.115-7.552-3.115H64
			V106.667z M490.667,384c0,17.643-14.357,32-32,32H53.333c-17.643,0-32-14.357-32-32v-10.667h144.917l18.197,18.219
			c2.005,1.984,4.715,3.115,7.552,3.115h128c2.837,0,5.547-1.131,7.531-3.115l18.219-18.219h144.917V384z"/>
	</g>
</g>
<g>
</g>
<g>
</g>
<g>
</g>
<g>
</g>
<g>
</g>
<g>
</g>
<g>
</g>
<g>
</g>
<g>
</g>
<g>
</g>
<g>
</g>
<g>
</g>
<g>
</g>
<g>
</g>
<g>
</g>
</svg>
