<svg height="512pt" viewBox="-21 0 512 512" width="512pt" xmlns="http://www.w3.org/2000/svg"><path d="m118.5 266.996094h-68.496094l-40.003906 235.003906h451.007812l-40.003906-235.003906h-67.90625" fill="#30cfad"/><path d="m181 324.738281c-19.007812 12.558594-29.96875 31.832031-29.96875 53.8125 0 38.710938 37.105469 69.035157 84.472656 69.035157 47.367188 0 84.472656-30.324219 84.472656-69.035157 0-21.90625-10.882812-41.128906-29.785156-53.6875" fill="#feda9b"/><path d="m207.511719 349.269531c-13.9375 6.167969-22.175781 16.976563-22.175781 29.28125 0 19.179688 22.460937 34.730469 50.167968 34.730469 27.707032 0 50.167969-15.550781 50.167969-34.730469 0-12.28125-8.207031-23.074219-22.101563-29.25" fill="#00b199"/><path d="m344.941406 55.425781c-60.566406-60.566406-158.402344-60.566406-218.191406 0-60.566406 60.5625-60.566406 157.625 0 218.1875l108.707031 100.585938 108.707031-99.808594c60.566407-60.566406 60.566407-158.402344.777344-218.964844zm0 0" fill="#fd4a4a"/><path d="m344.941406 165.46875c0 60.4375-48.996094 109.433594-109.4375 109.433594-60.4375 0-109.433594-48.996094-109.433594-109.433594 0-60.441406 48.996094-109.4375 109.433594-109.4375 60.441406 0 109.4375 48.996094 109.4375 109.4375zm0 0" fill="#f7f7f7"/><path d="m312.808594 98.058594c-2.570313 0-5.136719-.984375-7.09375-2.953125l-.152344-.152344c-3.890625-3.917969-3.871094-10.25.046875-14.144531 3.917969-3.890625 10.25-3.871094 14.140625.046875l.152344.152343c3.894531 3.917969 3.875 10.25-.042969 14.140626-1.953125 1.941406-4.5 2.910156-7.050781 2.910156zm0 0"/><path d="m235.503906 284.902344c-65.855468 0-119.433594-53.578125-119.433594-119.433594 0-65.859375 53.578126-119.4375 119.433594-119.4375 14.902344 0 29.441406 2.714844 43.222656 8.0625 5.148438 2 7.703126 7.792969 5.703126 12.941406-2 5.148438-7.796876 7.703125-12.941407 5.703125-11.460937-4.449219-23.570312-6.707031-35.984375-6.707031-54.828125 0-99.433594 44.605469-99.433594 99.433594 0 54.832031 44.609376 99.4375 99.433594 99.4375 54.832032 0 99.4375-44.605469 99.4375-99.4375 0-13.566406-2.683594-26.714844-7.96875-39.078125-2.175781-5.078125.179688-10.953125 5.257813-13.125s10.957031.179687 13.128906 5.257812c6.355469 14.863281 9.582031 30.65625 9.582031 46.945313 0 65.859375-53.578125 119.4375-119.4375 119.4375zm0 0"/><path d="m470.867188 500.320312-40.003907-235c-.816406-4.804687-4.984375-8.324218-9.859375-8.324218h-49.542968c18.277343-26.984375 28.144531-58.773438 28.222656-92.0625.109375-43.925782-16.804688-85.3125-47.625-116.535156-.015625-.015626-.03125-.03125-.046875-.046876-31.195313-31.195312-72.527344-48.351562-116.445313-48.351562-.179687 0-.363281 0-.542968 0-43.742188.140625-84.71875 17.328125-115.34375 48.351562-31.183594 31.183594-48.355469 72.4375-48.355469 116.167969 0 33.398438 10.015625 65.351563 28.640625 92.476563h-49.960938c-4.875 0-9.039062 3.519531-9.855468 8.324218l-40.007813 235c-.492187 2.90625.316406 5.878907 2.21875 8.128907 1.898437 2.25 4.695313 3.550781 7.640625 3.550781h451.007812c2.945313 0 5.742188-1.300781 7.640626-3.550781 1.902343-2.25 2.714843-5.222657 2.21875-8.128907zm-95.160157-223.324218-.367187 10.363281c-.972656 13.519531-8.546875 25.636719-20.28125 32.4375l-35.832032 20.753906c-3.777343-6.121093-8.503906-11.757812-14.089843-16.753906l45.789062-42.039063c.105469-.097656.207031-.195312.308594-.296874 1.464844-1.464844 2.902344-2.953126 4.304687-4.464844zm-194.871093 60.289062 10.71875 9.914063c-10.335938 8.085937-16.21875 19.1875-16.21875 31.351562 0 25.082031 26.429687 44.730469 60.167968 44.730469 33.742188 0 60.167969-19.648438 60.167969-44.730469 0-12.121093-5.84375-23.191406-16.109375-31.269531l10.757812-9.878906c12.734376 10.613281 19.660157 24.996094 19.660157 41.148437 0 33.101563-32.714844 59.035157-74.476563 59.035157-41.757812 0-74.472656-25.933594-74.472656-59.035157 0-16.214843 6.976562-30.640625 19.804688-41.265625zm83.679687 23.808594c7.15625 4.515625 11.15625 10.6875 11.15625 17.457031 0 13.40625-18.394531 24.730469-40.167969 24.730469-21.769531 0-40.167968-11.324219-40.167968-24.730469 0-6.785156 4.019531-12.964843 11.203124-17.484375l22.125 20.472656c1.917969 1.773438 4.355469 2.660157 6.792969 2.660157 2.425781 0 4.851563-.878907 6.765625-2.632813zm-130.648437-298.644531c26.898437-27.25 62.84375-42.324219 101.21875-42.449219h.476562c38.5625 0 74.871094 15.074219 102.285156 42.472656 55.847656 56.597656 55.5625 148.375-.609375 204.703125l-101.753906 93.425781-101.796875-94.191406c-27.320312-27.386718-42.363281-63.5625-42.363281-101.890625 0-38.386719 15.089843-74.621093 42.542969-102.070312zm-14.1875 218.238281c.089843.089844.183593.179688.277343.269531l46.113281 42.664063c-2.597656 2.3125-5.015624 4.761718-7.238281 7.332031l-36.132812-1.28125c-13.519531-.972656-25.640625-8.546875-32.441407-20.28125l-18.761718-32.394531h44.601562c1.171875 1.246094 2.363282 2.476562 3.582032 3.691406zm-63.519532 9.738281 16.792969 28.988281c10.164063 17.546876 28.308594 28.84375 48.539063 30.222657.105468.007812.214843.011719.324218.015625l24.820313.878906c-3.671875 8.738281-5.605469 18.195312-5.605469 28.019531 0 44.320313 41.496094 79.039063 94.472656 79.039063 52.976563 0 94.472656-34.71875 94.472656-79.039063 0-6.730469-.910156-13.292969-2.664062-19.570312l37.769531-21.878907c17.542969-10.164062 28.839844-28.308593 30.222657-48.535156.007812-.109375.011718-.21875.015624-.328125l.398438-11.242187h16.84375l9.230469 54.222656c-16.4375 1.398438-31.488281 10.074219-40.929688 23.800781-10.339843 15.03125-12.617187 34.171875-6.089843 51.210938l.394531 1.035156c5.597656 14.609375 1.074219 30.902344-11.25 40.542969l-46.890625 36.675781c-9.625 7.53125-22.71875 9.554687-34.175782 5.285156l-125.5-46.792969c-23.316406-8.695312-48.378906-10.023437-72.484374-3.851562-23.386719 5.992188-44.171876 18.609375-60.242188 36.558594zm175.429688 201.574219h-194.660156l1.363281-1.578125c27.546875-31.894531 72.582031-43.429687 112.070312-28.707031zm108.292968 0 36.359376-28.4375c19.285156-15.085938 26.359374-40.582031 17.601562-63.453125l-.394531-1.035156c-4.230469-11.046875-2.8125-22.972657 3.890625-32.71875 6.449218-9.378907 16.535156-14.910157 27.828125-15.316407l23.996093 140.960938zm0 0"/></svg>